<?xml version="1.0" encoding="UTF-8"?>
<svg id="Layer_1" xmlns="http://www.w3.org/2000/svg" version="1.1" viewBox="0 0 283.5 283.5">
  <!-- Generator: Adobe Illustrator 30.0.0, SVG Export Plug-In . SVG Version: 2.1.1 Build 123)  -->
  <path d="M241.6,165.4l11.3-13c1.9-1.2,4.1-1.2,5.9.2,5.7,4.5-5.4,12-7.5,15.6.2,1,9.7,10,11.2,11.9,5,6.3-2.4,10.6-7.3,6.6-3.9-3.2-7.7-9.3-11.4-13s-1.1-1.1-1.7-1.3l.9,13.3c0,.3-1.1,2.2-1.5,2.5-2.5,2.4-7.4,1.5-8.2-2l-2.9-45.1c.7-3.4,5.2-4.8,7.8-2.7s1.8,2.1,1.9,2.7l1.6,24.3Z"/>
  <path d="M180.4,184.6c-.9,2.3-4.4,4.2-6.9,4.5-19.9,3-25.4-27.9-9.6-35.7,4.8-2.4,11.1-2.5,15,1.6,2.4-5.2,8.8-5.3,9.7.8,1,6.6,1.8,20.4,1.6,27s-1.8,5.2-5.3,5-3-1.9-4.5-3.4ZM169.4,161.1c-6.7,1.8-6.4,17.8,1.6,19,11.9,1.8,11.1-22.4-1.6-19Z"/>
  <g>
    <path d="M194.7,93.6c.7,19.1-11.2,36.6-31.6,36.1l6-9.4,11-13.6c-4.6,3.6-8.9,7.4-12.9,11.7l-7.4,9.2c-1.2-8.9,1.6-18.9,8.4-25,7.3-6.6,17-8.3,26.5-9Z"/>
    <path d="M157,129.7c-4-4.8-8.3-9.4-13.3-13.1l7.3,9.1,3.5,5.7c-10.8.3-18.5-6.4-20.8-16.7s-1.1-6.6-.8-7.1,4,0,4.9,0c12.3,1.7,20.2,9.1,19.1,22.1Z"/>
    <path d="M147.7,153.8c-.9-1-1.1-2.8-.9-4.1s4.9-10.6,5.7-11.5c3.1-3.5,9.1-.7,8,4.4s-4.8,10-5.5,10.9c-1.7,2.2-5.6,2.3-7.4.3Z"/>
  </g>
  <path d="M172.8,138.4c2.4-.7,8-.5,8.7,2.7,1,4.5-4.4,4.6-7.5,4.2s-4.1-6-1.1-6.9Z"/>
  <path d="M204.7,154.6c.4.3,2.3-1.2,3.1-1.5,8.1-3.3,19,1.1,19.2,10.7,0,5.2-1,16.9-2,22.1s-7.6,5.3-9.2.9c-1.7-4.5,1.6-16.2,1.1-21.7-.5-6.1-10-6.8-11.6-1.5s-.8,13-1.7,18.3-1.8,6.2-5.7,5.9-4.3-2-4.3-4.7c0-9.2,2.4-19.6,2.7-28.9,1.2-4.1,8.2-3.9,8.5.5Z"/>
  <g>
    <path d="M100.3,152c27-4.2,28.2,39.5,1.5,37.2-20.4-1.8-20.3-34.3-1.5-37.2ZM98.9,178.4c2.4,2.4,6.7,2.6,9.3.4,4.4-3.8,4.2-14.7-1.5-17.4-9.6-4.5-13.6,11.3-7.8,17Z"/>
    <path d="M63,152c27-3.7,27.5,39.6,1.1,37.2-20.2-1.8-20.2-34.6-1.1-37.2ZM65.4,160.6c-8.9,1.1-9,18.1-.8,19.5,12.5,2.1,11.5-20.8.8-19.5Z"/>
    <path d="M40.5,148.8l4.6,34.3c0,.5-.5,2.5-.8,3-2,3.8-8.1,3.2-9.5-1l-4.9-34.9-8.7,1.2c-.4,0-2.3-1.3-2.7-1.7-1.7-2.1-1.6-5.5.9-6.9,6.6-1.3,13.4-1.9,20.1-2.9s2-.7,3.2-.9c4.4-.7,9.8-.6,9,5.4-.1,1-1.5,3.1-2.5,3.2l-8.7,1.2Z"/>
    <path d="M138.6,152.6c10.4-.8,9.6,11.2-.7,9l-1.8,23.9c0,1.2-2.4,3.1-3.8,3.2-3.9.3-5.9-1.8-5.9-5.5,0-7.1,1.6-15.1,1.7-22.3-8.8,0-7.8-10.5.7-9,.1-4.9.3-13.1,7.5-10.9s3,2.6,2.9,3.6l-.6,8Z"/>
  </g>
</svg>